<?xml version="1.0" standalone="no"?>
<!DOCTYPE svg PUBLIC "-//W3C//DTD SVG 20010904//EN"
 "http://www.w3.org/TR/2001/REC-SVG-20010904/DTD/svg10.dtd">
<svg version="1.0" xmlns="http://www.w3.org/2000/svg"
 width="259.000000pt" height="150.000000pt" viewBox="0 0 259.000000 150.000000"
 preserveAspectRatio="xMidYMid meet">

<g transform="translate(0.000000,150.000000) scale(0.100000,-0.100000)"
fill="#000000" stroke="none">
<path d="M534 1369 c-48 -14 -76 -51 -82 -109 -4 -48 -3 -52 36 -90 35 -35 45
-40 87 -40 42 0 52 5 86 39 34 34 39 45 39 84 0 56 -34 102 -88 117 -42 11
-37 11 -78 -1z"/>
<path d="M800 1373 c-91 -33 -72 -163 25 -163 80 0 115 93 54 144 -30 25 -49
30 -79 19z"/>
<path d="M998 1350 c-24 -25 -29 -36 -24 -58 18 -74 120 -84 147 -15 13 35 -4
77 -37 92 -38 17 -53 14 -86 -19z"/>
<path d="M145 1317 c-84 -47 -109 -165 -51 -242 36 -47 74 -65 137 -65 110 0
186 97 158 203 -28 107 -147 158 -244 104z"/>
<path d="M2160 1179 c-182 -88 -166 -87 -210 -21 -15 22 -16 22 -184 -93 -93
-63 -173 -115 -177 -115 -3 0 -12 14 -19 30 -7 17 -18 30 -24 28 -16 -4 -447
-301 -443 -305 2 -1 90 36 197 82 106 47 199 85 205 85 6 0 16 -20 23 -46 8
-31 16 -43 25 -38 6 4 87 61 178 126 91 65 169 118 172 118 3 0 11 -16 17 -35
6 -19 14 -35 17 -35 4 0 327 236 392 287 34 26 -11 8 -169 -68z"/>
<path d="M1017 1162 c-22 -24 -21 -65 1 -85 40 -36 102 -9 102 45 0 51 -69 78
-103 40z"/>
<path d="M846 1146 c-32 -31 -33 -66 -3 -94 31 -29 62 -28 93 4 40 39 20 95
-38 109 -21 5 -33 1 -52 -19z"/>
<path d="M680 1133 c-50 -18 -76 -70 -60 -119 23 -68 104 -87 153 -36 47 49
33 122 -28 148 -37 15 -42 15 -65 7z"/>
<path d="M412 1030 c-45 -28 -67 -82 -53 -130 40 -135 231 -107 231 34 0 27
-8 45 -33 72 -42 46 -96 55 -145 24z"/>
<path d="M1046 997 c-12 -9 -17 -23 -14 -42 2 -25 8 -31 33 -33 19 -3 33 2 42
14 17 24 17 30 -7 54 -24 24 -30 24 -54 7z"/>
<path d="M902 968 c-16 -16 -15 -53 2 -68 21 -16 56 -9 72 15 27 41 -39 88
-74 53z"/>
<path d="M82 915 c-43 -36 -58 -77 -43 -125 32 -106 177 -125 227 -29 28 56
11 129 -40 163 -39 25 -109 21 -144 -9z"/>
<path d="M774 932 c-60 -40 -15 -130 54 -108 59 19 40 116 -23 116 -11 0 -25
-4 -31 -8z"/>
<path d="M599 845 c-57 -31 -56 -121 2 -150 42 -22 67 -18 100 14 39 40 39 82
0 122 -32 32 -62 36 -102 14z"/>
<path d="M1060 845 c-17 -20 -5 -45 20 -45 11 0 23 7 26 15 6 15 -11 45 -26
45 -4 0 -13 -7 -20 -15z"/>
<path d="M951 811 c-18 -12 -9 -45 13 -49 17 -4 35 12 36 30 0 13 -36 27 -49
19z"/>
<path d="M329 751 c-51 -52 -34 -128 35 -151 63 -20 116 21 116 91 0 29 -7 43
-31 63 -41 35 -83 34 -120 -3z"/>
<path d="M840 725 c0 -20 5 -25 25 -25 20 0 25 5 25 25 0 20 -5 25 -25 25 -20
0 -25 -5 -25 -25z"/>
<path d="M740 636 c0 -13 6 -26 13 -29 22 -7 37 4 37 29 0 19 -5 24 -25 24
-20 0 -25 -5 -25 -24z"/>
<path d="M65 626 c-32 -32 -40 -69 -25 -107 17 -40 47 -59 93 -59 53 0 97 43
97 95 0 82 -108 128 -165 71z"/>
<path d="M534 625 c-21 -32 -7 -69 30 -87 55 -24 103 53 60 96 -25 25 -71 20
-90 -9z"/>
<path d="M824 626 c-3 -8 -4 -27 -2 -43 3 -28 4 -28 76 -31 l72 -3 0 -249 0
-250 90 0 90 0 0 196 0 197 -57 53 -58 54 133 0 132 0 0 45 0 45 -235 0 c-194
0 -237 -3 -241 -14z"/>
<path d="M1414 626 c-52 -23 -64 -50 -64 -147 0 -79 2 -88 26 -112 24 -24 129
-57 183 -57 11 0 39 -7 61 -16 l40 -16 0 -105 0 -106 -72 65 c-40 36 -74 75
-76 87 -3 19 -9 21 -83 21 l-79 0 0 -59 c0 -112 51 -136 276 -130 141 4 166
13 201 66 22 33 24 165 4 201 -17 32 -78 57 -188 77 -120 22 -125 28 -121 138
l3 86 68 -62 c38 -34 70 -71 71 -82 3 -18 12 -20 86 -23 l82 -3 -4 67 c-5 75
-20 95 -86 114 -55 15 -290 12 -328 -4z"/>
<path d="M2008 625 c-77 -25 -78 -28 -78 -280 0 -182 3 -224 15 -242 25 -36
103 -53 244 -53 141 0 192 10 227 45 24 24 24 26 24 245 0 133 -4 229 -10 241
-23 42 -66 53 -225 56 -112 2 -162 -1 -197 -12z m183 -51 l59 -47 0 -203 c0
-191 -1 -204 -19 -214 -25 -13 -67 -13 -92 0 -18 10 -19 24 -19 260 0 138 3
250 6 250 3 0 32 -21 65 -46z"/>
<path d="M313 548 c-29 -33 -33 -50 -18 -86 24 -56 106 -56 130 0 7 18 10 39
7 47 -10 31 -46 61 -72 61 -15 0 -35 -10 -47 -22z"/>
<path d="M694 535 c-9 -23 3 -45 25 -45 23 0 35 28 20 46 -15 18 -38 18 -45
-1z"/>
<path d="M505 470 c-27 -29 -10 -74 28 -78 37 -4 57 13 57 49 0 47 -53 65 -85
29z"/>
<path d="M663 414 c-7 -20 22 -45 44 -37 8 3 13 15 11 27 -4 27 -45 35 -55 10z"/>
<path d="M55 385 c-14 -13 -25 -31 -25 -39 0 -28 22 -64 47 -75 34 -16 47 -14
77 10 19 15 26 30 26 55 0 69 -76 99 -125 49z"/>
<path d="M296 358 c-9 -12 -16 -30 -16 -39 0 -19 45 -59 66 -59 22 0 54 38 54
63 0 53 -75 77 -104 35z"/>
<path d="M517 344 c-15 -15 -7 -63 13 -74 33 -17 62 4 58 43 -3 27 -7 32 -33
35 -17 2 -34 0 -38 -4z"/>
<path d="M674 305 c-4 -9 -2 -21 4 -27 16 -16 47 -5 47 17 0 26 -42 34 -51 10z"/>
</g>
</svg>
