<?xml version="1.0" encoding="utf-8"?>
<svg id="master-artboard" viewBox="0 0 1400 980" version="1.1" xmlns="http://www.w3.org/2000/svg" x="0px" y="0px" style="enable-background:new 0 0 1400 980;" width="1400px" height="980px"><rect id="ee-background" x="0" y="0" width="1400" height="980" style="fill: white; fill-opacity: 0; pointer-events: none;"/><defs><style id="ee-google-fonts">@import url(https://fonts.googleapis.com/css?family=Almendra+SC:400);</style></defs><path d="M 95.71888732910156 111.75 C 95.49888610839844 112.87000274658203 95.34888458251953 114.02333068847656 95.26888275146484 115.20999908447266 C 95.18888854980469 116.38999938964844 95.14888763427734 118.2933349609375 95.14888763427734 120.91999816894531 C 95.14888763427734 123.54666900634766 95.2522201538086 125.62666320800781 95.4588851928711 127.16000366210938 C 96.30554962158203 127.23999786376953 97.18555450439453 127.3933334350586 98.09888458251953 127.62000274658203 L 98.02888488769531 128.19000244140625 C 96.84221649169922 128.06333923339844 95.55554962158203 128 94.16888427734375 128 C 92.78888702392578 128 91.67555236816406 128.06333923339844 90.82888793945312 128.19000244140625 L 90.7288818359375 127.58999633789062 C 91.44888305664062 127.37000274658203 92.2155532836914 127.20333099365234 93.02888488769531 127.08999633789062 C 93.16221618652344 126.02999877929688 93.2522201538086 124.32666778564453 93.29888916015625 121.9800033569336 C 92.4655532836914 121.87999725341797 91.54888916015625 121.83000183105469 90.54888916015625 121.83000183105469 C 89.54888916015625 121.83000183105469 88.70555114746094 121.87999725341797 88.01888275146484 121.9800033569336 C 87.63221740722656 123.54666900634766 87.43888854980469 124.80000305175781 87.43888854980469 125.73999786376953 C 87.43888854980469 126.6866683959961 87.78221893310547 127.36000061035156 88.46888732910156 127.76000213623047 L 88.3788833618164 128.10000610351562 C 87.8788833618164 128.03334045410156 87.04222106933594 128 85.86888885498047 128 C 84.69554901123047 128 83.63555145263672 128.06333923339844 82.68888854980469 128.19000244140625 L 82.58888244628906 127.58999633789062 C 83.30888366699219 127.37000274658203 84.07888793945312 127.20333099365234 84.89888763427734 127.08999633789062 L 88.68888854980469 113.6500015258789 C 86.80221557617188 113.6500015258789 85.59555053710938 113.90666961669922 85.06888580322266 114.41999816894531 C 84.95555114746094 114.63999938964844 84.89888763427734 114.98999786376953 84.89888763427734 115.47000122070312 C 84.89888763427734 115.94999694824219 84.9788818359375 116.27999877929688 85.13888549804688 116.45999908447266 L 85.10888671875 116.62000274658203 C 84.7088851928711 116.86000061035156 84.30888366699219 117.19667053222656 83.90888214111328 117.62999725341797 C 83.72222137451172 117.61666870117188 83.56888580322266 117.53666687011719 83.44888305664062 117.38999938964844 C 83.32888793945312 117.25 83.26888275146484 117.08333587646484 83.26888275146484 116.88999938964844 C 83.26888275146484 116.10333251953125 83.73888397216797 115.16666412353516 84.67888641357422 114.08000183105469 C 85.62554931640625 112.99333190917969 86.50555419921875 112.3066635131836 87.31888580322266 112.02000427246094 C 89.73888397216797 112.28666687011719 92.18888854980469 112.51666259765625 94.66888427734375 112.70999908447266 C 94.88888549804688 112.42333221435547 95.07221984863281 112.0566635131836 95.21888732910156 111.61000061035156 L 95.71888732910156 111.75 M 88.27888488769531 120.77999877929688 C 88.99888610839844 120.88666534423828 89.85221862792969 120.94000244140625 90.83888244628906 120.94000244140625 C 91.81888580322266 120.94000244140625 92.63888549804688 120.88666534423828 93.29888916015625 120.77999877929688 C 93.29888916015625 117.94667053222656 93.2588882446289 115.63333129882812 93.17888641357422 113.83999633789062 L 93.10888671875 113.77000427246094 C 92.27555084228516 113.69000244140625 91.24221801757812 113.6500015258789 90.0088882446289 113.6500015258789 L 88.27888488769531 120.77999877929688 ZM 105.77465057373047 112.02000427246094 C 107.72798156738281 112.02000427246094 109.20465087890625 112.60333251953125 110.20465087890625 113.77000427246094 C 111.20465087890625 114.9366683959961 111.70465087890625 116.60333251953125 111.70465087890625 118.77000427246094 C 111.70465087890625 120.9366683959961 111.1579818725586 122.88999938964844 110.06465148925781 124.62999725341797 C 108.96464538574219 126.36333465576172 107.43798065185547 127.6066665649414 105.48464965820312 128.36000061035156 C 103.61798095703125 128.36000061035156 102.1146469116211 127.73999786376953 100.97464752197266 126.5 C 99.84131622314453 125.26000213623047 99.27465057373047 123.63999938964844 99.27465057373047 121.63999938964844 C 99.27465057373047 118.37333679199219 100.4579849243164 115.66999816894531 102.82464599609375 113.52999877929688 L 103.1146469116211 113.72000122070312 C 101.97464752197266 115.36666870117188 101.40464782714844 117.413330078125 101.40464782714844 119.86000061035156 C 101.40464782714844 121.6066665649414 101.81131744384766 123.17333221435547 102.62464904785156 124.55999755859375 C 103.43131256103516 125.94000244140625 104.55464935302734 126.62999725341797 105.9946517944336 126.62999725341797 C 106.93464660644531 126.62999725341797 107.72464752197266 126.3499984741211 108.3646469116211 125.79000091552734 C 109.1646499633789 124.31666564941406 109.56465148925781 122.57333374023438 109.56465148925781 120.55999755859375 C 109.56465148925781 117.91999816894531 109.06131744384766 115.98333740234375 108.05464935302734 114.75 C 107.5146484375 114.07666778564453 106.83464813232422 113.73999786376953 106.0146484375 113.73999786376953 C 105.601318359375 113.73999786376953 105.21797943115234 113.86000061035156 104.8646469116211 114.0999984741211 C 104.51131439208984 114.33999633789062 104.2646484375 114.65333557128906 104.12464904785156 115.04000091552734 C 104.12464904785156 115.36000061035156 104.19464874267578 115.73333740234375 104.33464813232422 116.16000366210938 C 104.48131561279297 116.58000183105469 104.6646499633789 116.84666442871094 104.88465118408203 116.95999908447266 L 104.93464660644531 117.12999725341797 C 104.58131408691406 117.5633316040039 104.31797790527344 118.02000427246094 104.14464569091797 118.5 C 104.11131286621094 118.51333618164062 104.04798126220703 118.52000427246094 103.95465087890625 118.52000427246094 C 103.37464904785156 118.52000427246094 103.08464813232422 118.00666809082031 103.08464813232422 116.97999572753906 C 103.08464813232422 115.25333404541016 103.98131561279297 113.5999984741211 105.77465057373047 112.02000427246094 Z" transform="matrix(24.517831802368164, 0, 0, 24.517831802368164, -1650.4451904296875, -2548.283203125)" style="fill: rgb(17, 17, 17); white-space: pre; color: rgb(51, 51, 51);"/><g transform="matrix(8.974943161010742, 0, 0, 8.974943161010742, -5118.79220844275, -9552.78439594275)"><g id="g-1" transform="matrix(1, 0, 0, 1, 0, 0)">
	<g id="g-2">
		<g>
			<path class="st0" d="M649,1172.1l-0.8-0.2c-19.5-5.3-34.6-19.3-43.6-40.7c-6.8-16.1-8.6-32.9-8.6-40.3c0-2.6,0.2-5.2,0.6-7.8&#10;&#9;&#9;&#9;&#9;l0.3-1.9l52.2-15.4l52.2,15.4l0.3,1.9c0.4,2.6,0.5,5.2,0.6,7.7c0,7.4-1.8,24.2-8.6,40.3c-9,21.3-24.1,35.4-43.6,40.7L649,1172.1z&#10;&#9;&#9;&#9;&#9; M602.3,1085.9c-0.2,1.7-0.3,3.4-0.3,5c0,6.9,1.7,22.7,8.1,37.9c8.2,19.5,21.3,32,38.9,37c17.5-5,30.6-17.4,38.9-37&#10;&#9;&#9;&#9;&#9;c6.4-15.2,8.1-31,8.1-38c0-1.7-0.1-3.3-0.3-5l-46.7-13.8L602.3,1085.9z" style="fill: rgb(16, 13, 51);"/>
		</g>
	</g>
</g></g><path d="M 212.3333282470703 289.77777099609375" style="fill: rgb(16, 13, 51); fill-opacity: 1; stroke: rgb(0, 0, 0); stroke-opacity: 1; stroke-width: 0; paint-order: fill;"/></svg>